# xmcd
#
# Track frame offsets: 
#        150
#        17187
#        31126
#        50950
#        74389
#        94823
#        112309
#        121360
#        139731
#        161536
#        179880
#        201592
#        224187
#        242642
#
# Disc length: 3597 seconds
#
# Revision: 0
# Processed by: cddbd v1.5.2PL0 Copyright (c) Steve Scherf et al.
# Submitted via: ExactAudioCopy v0.95a4
#
DISCID=e70e0b0e
DTITLE=Adrienne Young and Little Sadie - MagnoliaFest - Live Oak FL - 10
DTITLE=23-04
DYEAR=2004
DGENRE=Folk
TTITLE0=Run Molly Run
TTITLE1=Lost Indian
TTITLE2=Jump the Broom
TTITLE3=My Love Will Keep
TTITLE4=Plow to the End of the Row
TTITLE5=Home Remedy
TTITLE6=Bonaparte's Retreat
TTITLE7=Hills and Hollers
TTITLE8=Blinded by Stars
TTITLE9=Satan, Yer Kingdom Must Come Down
TTITLE10=Old Folks at Home
TTITLE11=Leather Britches
TTITLE12=Sadie's Song
TTITLE13=Brokedown Palace
EXTD=
EXTT0=
EXTT1=
EXTT2=
EXTT3=
EXTT4=
EXTT5=
EXTT6=
EXTT7=
EXTT8=
EXTT9=
EXTT10=
EXTT11=
EXTT12=
EXTT13=
PLAYORDER=
